<svg>
    <g class="vf-modifiers">
        <path stroke-width="0.3" fill="black" stroke="none" stroke-dasharray="none"
              d="M270.90013795994065 75M275.6607779599407 79.40496C276.6457379599407 80.08896,277.60333795994063 81.156,278.77981795994066 81.81264C278.77981795994066 81.81264,278.88925795994066 81.89472,279.02605795994066 81.89472C279.13549795994066 81.89472,279.24493795994067 81.86736,279.38173795994066 81.7032C279.68269795994064 81.2928,279.8468579599406 58.80288,279.8468579599406 58.80288C279.79213795994065 58.09152,279.16285795994065 57.70848,278.6156579599407 57.70848C278.2326179599406 57.70848,277.8769379599407 57.92736,277.8769379599407 58.365120000000005C277.8769379599407 59.15856,278.1231779599407 68.62512,278.15053795994066 69.47328C278.15053795994066 69.74688,277.9863779599406 70.04784,277.71277795994064 70.15728C277.6306979599407 70.18464,277.60333795994063 70.18464,277.52125795994067 70.18464C277.32973795994064 70.18464,276.8919779599407 69.82896,276.6457379599407 69.63744C276.09853795994064 69.28176,275.1682979599407 68.9808,274.48429795994065 68.9808C272.6785379599406 69.09024,270.92749795994064 70.51296,270.92749795994064 72.6744C270.92749795994064 74.56224,272.15869795994064 76.96992,275.6607779599407 79.40496M273.6634979599406 73.3584C273.6634979599406 72.37344,274.12861795994064 71.06016,275.2777379599406 71.06016C276.18061795994066 71.06016,277.76749795994067 72.20928,278.04109795994066 73.00272C278.06845795994064 73.13952,278.1231779599407 73.632,278.1231779599407 74.26128C278.1231779599407 75.8208,277.9863779599406 78.20112,277.9863779599406 78.20112C277.9863779599406 78.39264,277.90429795994066 78.77568,277.54861795994066 78.77568C277.43917795994065 78.77568,277.32973795994064 78.74832,277.16557795994066 78.66624C275.46925795994065 77.5992,273.6634979599406 75.46512,273.6634979599406 73.3584"/>
    </g>
</svg>