<svg>
    <g class="vf-modifiers">
        <path stroke-width="0.3" fill="black" stroke="none" stroke-dasharray="none"
              d="M226.10335999999998 75M226.076 68.21472C226.076 68.37888,226.13071999999997 68.54304,226.34959999999998 68.54304C226.43167999999997 68.54304,228.23744 67.85904,228.31951999999998 67.77696C228.45631999999998 67.77696,228.53839999999997 67.85904,228.53839999999997 67.94112C228.62048 74.1792,228.72992 81.45696,228.94879999999998 81.7032C229.05823999999998 81.86736,229.16768 81.89472,229.24975999999998 81.89472C229.38655999999997 81.89472,229.49599999999998 81.81264,229.49599999999998 81.81264C230.67247999999998 81.18336,231.65743999999998 80.08896,232.64239999999998 79.40496C236.14448 76.96992,237.37568 74.53488,237.37568 72.70176000000001C237.37568 70.45824,235.62463999999997 69.09024,233.81887999999998 68.9808C233.59999999999997 68.9808,233.32639999999998 69.00816,233.08015999999998 69.09024C232.61504 69.19968,232.17727999999997 69.36384,231.65743999999998 69.63744C231.38384 69.82896,230.94608 70.15728,230.78191999999999 70.15728C230.69984 70.15728,230.64512 70.15728,230.56303999999997 70.10256C230.28943999999998 70.04784,230.12527999999998 69.74688,230.12527999999998 69.47328C230.12527999999998 69.2544,230.20736 67.66752,230.20736 67.44864C230.20736 67.14768,230.31679999999997 67.09296,230.42623999999998 67.03824C230.56303999999997 67.01088,236.03503999999998 64.8768,236.03503999999998 64.8768C236.30863999999997 64.79472,236.41807999999997 64.63056,236.41807999999997 64.49376L236.41807999999997 62.57856C236.41807999999997 62.469120000000004,236.39072 62.22288,236.1992 62.22288C236.14448 62.22288,236.06239999999997 62.22288,236.03503999999998 62.2776C236.03503999999998 62.2776,230.67247999999998 64.24752,230.50831999999997 64.3296C230.31679999999997 64.3296,230.28943999999998 64.1928,230.28943999999998 64.08336C230.31679999999997 61.48416,230.39888 58.77552,230.39888 58.365120000000005C230.39888 57.92736,230.04319999999998 57.70848,229.66016 57.70848C229.14031999999997 57.70848,228.51103999999998 58.09152,228.45631999999998 58.80288C228.45631999999998 58.80288,228.45631999999998 61.29264,228.51103999999998 64.68528C228.51103999999998 64.79472,228.51103999999998 65.1504,228.18272 65.25984L226.43167999999997 65.94384C226.18543999999997 65.9712,226.076 66.05328,226.076 66.2448M230.15264 74.26128C230.15264 73.632,230.20736 73.13952,230.23471999999998 73.00272C230.50831999999997 72.1272,232.09519999999998 71.06016,233.08015999999998 71.06016C234.25663999999998 71.06016,234.63967999999997 72.29136,234.63967999999997 73.30368C234.63967999999997 75.51984,232.91599999999997 77.62656,231.05551999999997 78.66624C230.91871999999998 78.74832,230.78191999999999 78.77568,230.67247999999998 78.77568C230.37151999999998 78.77568,230.28943999999998 78.42,230.28943999999998 78.20112C230.28943999999998 78.20112,230.15264 75.8208,230.15264 74.26128"/>
    </g>
</svg>