<svg>
    <g class="vf-modifiers">
        <path stroke-width="0.3" fill="black" stroke="none" stroke-dasharray="none"
              d="M189.316 75M189.78112000000002 81.7032C189.91792 81.86736,190.02736000000002 81.89472,190.1368 81.89472C190.27360000000002 81.89472,190.38304 81.81264,190.38304 81.81264C191.55952 81.156,192.51712 80.08896,193.50208 79.40496C197.00416 76.96992,198.208 74.56224,198.208 72.75648C198.208 70.51296,196.48432 69.09024,194.67856 68.9808C193.99456 68.9808,193.06432 69.28176,192.51712 69.63744C192.27088 69.82896,191.83312 70.18464,191.6416 70.18464C191.55952 70.18464,191.53216 70.18464,191.45008 70.15728C191.17648 70.04784,191.01232 69.74688,191.01232 69.47328C191.03968 68.62512,191.28592 59.15856,191.28592 58.365120000000005C191.28592 57.92736,190.93024 57.70848,190.5472 57.70848C189.97264 57.70848,189.34336 58.09152,189.316 58.80288C189.316 58.80288,189.48016 81.2928,189.78112000000002 81.7032M191.12176 73.00272C191.39536 72.20928,192.98224 71.06016,193.88512 71.06016C195.03424 71.06016,195.49936 72.37344,195.49936 73.3584C195.49936 75.46512,193.6936 77.5992,191.99728 78.66624C191.83312 78.74832,191.72368 78.77568,191.61424 78.77568C191.25856 78.77568,191.17648 78.39264,191.17648 78.20112C191.17648 78.20112,191.03968 75.8208,191.03968 74.26128C191.03968 73.632,191.0944 73.13952,191.12176 73.00272"/>
    </g>
</svg>