<svg>
    <g class="vf-modifiers">
        <path stroke-width="0.3" fill="black" stroke="none" stroke-dasharray="none"
              d="M150.20304000000002 75M150.2304 61.8672L150.2304 63.89184C150.2304 64.056,150.31248000000002 64.1928,150.53136 64.1928C150.58608 64.1928,152.28240000000002 63.56352,152.36448000000001 63.53616C152.556 63.53616,152.63808 63.6456,152.63808 63.72768C152.63808 64.08336,152.63808 64.43904,152.6928 64.71264C152.6928 65.04096,152.63808 65.12304,152.44656 65.17776C152.28240000000002 65.25984,150.6408 65.94384,150.6408 65.94384C150.36720000000003 65.94384,150.2304 66.02592,150.2304 66.21744L150.2304 68.21472C150.2304 68.37888,150.31248000000002 68.54304,150.55872000000002 68.54304C150.6408 68.54304,152.1456 67.94112,152.36448000000001 67.83168C152.63808 67.83168,152.72016000000002 67.99584,152.72016000000002 68.13264C152.80224 74.37072,152.96640000000002 81.45696,153.13056 81.62112C153.24 81.81264,153.34944000000002 81.86736,153.48624 81.86736C153.59568000000002 81.86736,153.70512000000002 81.78528,153.70512000000002 81.78528C154.88160000000002 81.156,155.86656000000002 80.03424,156.76944 79.3776C160.24416000000002 76.94256,161.50272 74.56224,161.50272 72.70176000000001C161.50272 70.45824,159.77904 69.09024,157.97328000000002 68.9808C157.28928000000002 68.9808,156.46848000000003 69.28176,155.86656000000002 69.63744C155.56560000000002 69.80160000000001,155.23728000000003 70.18464,154.88160000000002 70.18464C154.85424 70.18464,154.79952000000003 70.15728,154.77216 70.15728C154.49856000000003 70.04784,154.33440000000002 69.74688,154.33440000000002 69.44592C154.33440000000002 69.2544,154.33440000000002 68.54304,154.38912000000002 67.64016C154.38912000000002 67.476,154.38912000000002 67.09296,154.66272 67.01088C154.93632000000002 66.87408,160.2168 64.95888,160.2168 64.95888C160.43568000000002 64.8768,160.57248 64.71264,160.57248 64.52112L160.57248 62.63328C160.57248 62.469120000000004,160.51776 62.30496,160.32624 62.30496C160.2168 62.30496,154.85424 64.27488,154.69008000000002 64.35696C154.66272 64.35696,154.4712 64.24752,154.4712 64.16544C154.49856000000003 63.80976,154.49856000000003 63.28992,154.49856000000003 63.071039999999996C154.49856000000003 62.824799999999996,154.608 62.715360000000004,154.77216 62.63328C154.93632000000002 62.5512,160.2168 60.60864,160.2168 60.60864C160.43568000000002 60.55392,160.57248 60.38976,160.57248 60.2256L160.57248 58.28304C160.57248 58.146240000000006,160.51776 57.982079999999996,160.32624 57.982079999999996C160.2168 57.982079999999996,154.96368 59.89728,154.85424 59.952C154.66272 59.952,154.58064000000002 59.84256,154.58064000000002 59.76048C154.58064000000002 58.9944,154.608 58.52928,154.608 58.365120000000005C154.608 57.92736,154.25232000000003 57.735839999999996,153.86928 57.735839999999996C153.32208000000003 57.735839999999996,152.6928 58.146240000000006,152.63808 58.857600000000005L152.63808 60.55392C152.63808 60.60864,152.61072000000001 60.82752,152.41920000000002 60.85488C152.28240000000002 60.93696,150.6408 61.56624,150.6408 61.56624C150.36720000000003 61.5936,150.2304 61.7304,150.2304 61.8672M154.41648 73.00272C154.58064000000002 72.48288,155.59296 71.60736,156.19488 71.3064C156.55056000000002 71.14224,156.85152000000002 71.06016,157.17984 71.06016C157.56288 71.06016,157.91856 71.1696,158.19216 71.4432C158.54784 71.88096,158.79408 72.51024,158.79408 73.30368C158.79408 75.46512,157.0704 77.57184,155.29200000000003 78.61152C155.12784000000002 78.6936,155.0184 78.74832,154.93632000000002 78.74832C154.608 78.74832,154.49856000000003 78.33792,154.49856000000003 78.11904C154.49856000000003 78.11904,154.38912000000002 75.60192,154.38912000000002 74.0424C154.38912000000002 73.54992,154.38912000000002 73.13952,154.41648 73.00272"/>
    </g>
</svg>