<svg>
    <g class="vf-modifiers">
        <path stroke-width="0.3" fill="black" stroke="none" stroke-dasharray="none"
              d="M326.48939057370336 75M326.8177105737034 83.6184C326.9545105737034 83.6184,328.56875057370337 82.90704,328.81499057370337 82.7976C329.00651057370334 82.71552,329.36219057370334 83.23536,329.36219057370334 83.53632L329.36219057370334 88.46112C329.36219057370334 88.70736,329.60843057370334 88.89888,329.9093905737034 88.89888C330.5113105737034 88.89888,330.59339057370335 88.62528,330.59339057370335 88.24224L330.59339057370335 82.7976C330.59339057370335 82.68816,330.59339057370335 82.60608,330.62075057370333 82.49664C330.67547057370336 82.2504,330.81227057370336 82.00416,330.97643057370334 81.92208C331.30475057370336 81.86736,333.05579057370335 81.156,333.05579057370335 81.156C333.30203057370335 81.07392,333.54827057370335 80.7456,333.54827057370335 80.52672L333.54827057370335 77.70864C333.54827057370335 77.48976,333.41147057370335 77.35296,333.2199505737034 77.35296C333.19259057370334 77.35296,333.1105105737034 77.40768,333.05579057370335 77.40768L333.05579057370335 77.35296C333.05579057370335 77.35296,331.2500305737034 78.11904,331.08587057370335 78.1464C330.81227057370336 78.1464,330.53867057370337 77.92752,330.53867057370337 77.48976L330.53867057370337 73.82352C330.53867057370337 73.4952,330.7575505737034 72.78384,331.05851057370336 72.6744C331.41419057370337 72.51024,333.05579057370335 71.88096,333.05579057370335 71.88096C333.30203057370335 71.77152,333.54827057370335 71.49792,333.54827057370335 71.22432L333.54827057370335 68.4336C333.54827057370335 68.21472,333.38411057370337 68.10528,333.2199505737034 68.10528C333.19259057370334 68.10528,333.1105105737034 68.10528,333.05579057370335 68.13264C333.05579057370335 68.13264,331.16795057370337 68.844,331.08587057370335 68.844C330.7575505737034 68.844,330.59339057370335 68.4336,330.59339057370335 68.07792L330.59339057370335 63.34464C330.59339057370335 63.0984,330.34715057370335 62.90688,330.04619057370337 62.90688C329.44427057370336 62.90688,329.36219057370334 63.26256,329.36219057370334 63.56352L329.36219057370334 68.7072C329.36219057370334 69.00816,329.25275057370334 69.47328,328.97915057370335 69.71952C328.26779057370334 69.99312,327.63851057370334 70.32144,326.9545105737034 70.59504C326.73563057370336 70.67712,326.48939057370336 70.97808,326.48939057370336 71.22432L326.48939057370336 74.01504C326.48939057370336 74.26128,326.59883057370337 74.37072,326.8177105737034 74.37072C326.84507057370337 74.37072,326.9271505737034 74.34336,326.9545105737034 74.34336C326.9545105737034 74.34336,328.48667057370335 73.65936,328.81499057370337 73.54992C328.84235057370336 73.54992,328.8970705737034 73.4952,328.9244305737034 73.4952C329.1706705737034 73.4952,329.4169105737034 73.85088,329.4169105737034 74.1792L329.4169105737034 78.11904C329.4169105737034 78.5568,329.25275057370334 78.91248,329.00651057370334 78.9672L326.9545105737034 79.84272C326.73563057370336 79.9248,326.48939057370336 80.25312,326.48939057370336 80.472L326.48939057370336 83.26272C326.48939057370336 83.50896,326.59883057370337 83.6184,326.8177105737034 83.6184"/>
    </g>
</svg>