<svg>
    <g class="vf-modifiers">
        <path stroke-width="0.3" fill="black" stroke="none" stroke-dasharray="none"
              d="M410.5544871234087 75M410.8828071234087 73.98768C411.0196071234087 73.98768,411.7856871234087 73.632,411.8951271234087 73.54992C411.9224871234087 73.54992,411.97720712340873 73.4952,412.0045671234087 73.4952C412.2781671234087 73.4952,412.5244071234087 73.9056,412.5244071234087 74.20656L412.5244071234087 78.11904C412.5244071234087 78.5568,412.3328871234087 78.91248,412.0866471234087 79.02192C411.8677671234087 79.104,411.0196071234087 79.45968,411.0196071234087 79.45968C410.74600712340873 79.54176,410.5544871234087 79.84272,410.5544871234087 80.08896L410.5544871234087 82.87968C410.5544871234087 83.12592,410.6639271234087 83.23536,410.8828071234087 83.23536C410.9101671234087 83.23536,410.99224712340873 83.208,411.0196071234087 83.208C411.0196071234087 83.208,411.5668071234087 82.96176,411.9224871234087 82.85232C411.97720712340873 82.7976,412.0045671234087 82.7976,412.0592871234087 82.7976C412.3328871234087 82.7976,412.5244071234087 83.23536,412.5244071234087 83.42688L412.5244071234087 88.2696C412.5244071234087 88.51584,412.7706471234087 88.70736,413.0442471234087 88.70736C413.4272871234087 88.70736,413.70088712340873 88.51584,413.70088712340873 88.2696L413.70088712340873 82.7976C413.70088712340873 82.27776,413.8924071234087 82.00416,414.1112871234087 81.92208L416.4916071234087 80.93712C416.54632712340873 80.93712,416.6284071234087 80.90976,416.6557671234087 80.90976C416.9840871234087 80.90976,417.1756071234087 81.37488,417.1756071234087 81.62112L417.1756071234087 86.54592C417.1756071234087 86.79216,417.4218471234087 86.98367999999999,417.6954471234087 86.98367999999999C418.1058471234087 86.98367999999999,418.3520871234087 86.79216,418.3520871234087 86.54592L418.3520871234087 80.93712C418.3520871234087 80.63616,418.51624712340873 80.17104,418.7898471234087 80.03424C419.0634471234087 79.9248,419.8842471234087 79.59648,419.8842471234087 79.59648C420.1578471234087 79.48704,420.3767271234087 79.18608,420.3767271234087 78.93984L420.3767271234087 76.14912C420.3767271234087 75.9576,420.23992712340873 75.8208,420.0757671234087 75.8208C420.0210471234087 75.8208,419.9663271234087 75.8208,419.8842471234087 75.87552L418.8719271234087 76.25856C418.6256871234087 76.25856,418.3520871234087 76.01232,418.3520871234087 75.5472L418.3520871234087 71.88096C418.3520871234087 71.60736,418.5436071234087 70.86864,418.8719271234087 70.73184L419.8842471234087 70.3488C420.1578471234087 70.23936,420.3767271234087 69.91104,420.3767271234087 69.69216L420.3767271234087 66.87408C420.3767271234087 66.68256,420.23992712340873 66.57312,420.0757671234087 66.57312C420.0210471234087 66.57312,419.9663271234087 66.57312,419.8842471234087 66.60048C419.8842471234087 66.60048,419.0908071234087 66.9288,418.8992871234087 66.95616C418.6256871234087 66.95616,418.3520871234087 66.76464,418.3520871234087 66.46368L418.3520871234087 61.64832C418.3520871234087 61.40208,418.1058471234087 61.21056,417.8048871234087 61.21056C417.4218471234087 61.21056,417.1756071234087 61.40208,417.1756071234087 61.64832L417.1756071234087 66.76464C417.1208871234087 67.14768,417.0114471234087 67.66752,416.6557671234087 67.91376C416.1906471234087 68.18736,414.8500071234087 68.73456,414.1660071234087 68.89872C413.8376871234087 68.89872,413.70088712340873 68.4336,413.70088712340873 68.10528L413.70088712340873 63.372C413.70088712340873 63.15312,413.4272871234087 62.93424,413.1536871234087 62.93424C412.7706471234087 62.93424,412.5244071234087 63.15312,412.5244071234087 63.372L412.5244071234087 68.7072C412.5244071234087 69.2544,412.2781671234087 69.63744,412.0592871234087 69.74688C411.8130471234087 69.88368,411.0196071234087 70.18464,411.0196071234087 70.18464C410.74600712340873 70.26672,410.5544871234087 70.59504,410.5544871234087 70.81392L410.5544871234087 73.632C410.5544871234087 73.85088,410.6639271234087 73.98768,410.8828071234087 73.98768M413.5914471234087 76.17648C413.5914471234087 74.97264,413.6188071234087 73.57728,413.70088712340873 73.27632C413.7829671234087 72.59232,415.5887271234087 71.77152,416.5736871234087 71.77152C416.8472871234087 71.77152,417.0935271234087 71.8536,417.1756071234087 72.01776C417.2576871234087 72.20928,417.3397671234087 73.19424,417.3397671234087 74.26128C417.3397671234087 75.32832,417.2576871234087 76.42272,417.1756071234087 76.7784C416.9293671234087 77.57184,415.0962471234087 78.33792,414.1660071234087 78.33792C413.9471271234087 78.33792,413.7556071234087 78.2832,413.70088712340873 78.1464C413.6188071234087 77.98224,413.5914471234087 77.13408,413.5914471234087 76.17648"/>
    </g>
</svg>