<svg>
    <path stroke-width="0.3" fill="black" stroke="none" stroke-dasharray="none"
          d="M633.0969015267871 75M633.069541526787 76.2312L633.069541526787 78.77568C633.069541526787 78.9672,633.1789815267871 79.21344,633.425221526787 79.21344L638.979301526787 77.16144C639.0887415267871 77.16144,639.116101526787 77.21616,639.116101526787 77.29823999999999L639.116101526787 77.8728C639.116101526787 78.1464,639.0887415267871 78.2832,638.842501526787 78.33792C638.623621526787 78.47472,635.805541526787 79.59648,635.805541526787 79.59648C635.531941526787 79.73328,635.340421526787 80.00688,635.340421526787 80.28048L635.340421526787 83.0712C635.340421526787 83.26272,635.4498615267871 83.39952,635.614021526787 83.39952C635.6961015267871 83.39952,635.7234615267871 83.39952,635.805541526787 83.34479999999999C635.805541526787 83.34479999999999,638.5415415267871 82.2504,638.8151415267871 82.16832C639.116101526787 82.16832,639.116101526787 82.22304,639.116101526787 82.60608L639.116101526787 87.88656C639.116101526787 88.1328,639.3623415267871 88.32432,639.6359415267871 88.32432C640.237861526787 88.32432,640.319941526787 88.05072,640.319941526787 87.69504L640.319941526787 82.22304C640.319941526787 82.08624,640.319941526787 82.00416,640.3473015267871 81.92208C640.4293815267871 81.7032,640.538821526787 81.45696,640.730341526787 81.37488C641.0039415267871 81.26544,643.904101526787 80.17104,643.904101526787 80.17104C644.177701526787 80.03424,644.3692215267871 79.76064,644.3692215267871 79.48704L644.3692215267871 76.69632C644.3692215267871 76.5048,644.2871415267871 76.368,644.0956215267871 76.368C644.040901526787 76.368,643.9588215267871 76.368,643.904101526787 76.42272L640.7029815267871 77.62656C640.4293815267871 77.62656,640.319941526787 77.57184,640.319941526787 77.35296L640.319941526787 76.86048C640.319941526787 76.69632,640.3473015267871 76.6416,640.456741526787 76.61424C640.593541526787 76.58688,645.9834615267871 74.53488,645.9834615267871 74.53488C646.3391415267871 74.39808,646.448581526787 74.26128,646.448581526787 74.01504L646.448581526787 71.52528C646.448581526787 71.33376,646.4212215267871 71.06016,646.147621526787 71.06016C646.092901526787 71.06016,646.010821526787 71.14224,645.9834615267871 71.14224L645.9834615267871 71.08752C645.9834615267871 71.08752,640.812421526787 73.05744,640.593541526787 73.13952C640.538821526787 73.13952,640.456741526787 73.19424,640.4293815267871 73.19424C640.319941526787 73.19424,640.319941526787 73.11216,640.319941526787 73.05744L640.319941526787 72.48288C640.319941526787 72.31872,640.3473015267871 72.29136,640.5114615267871 72.20928L643.904101526787 70.896C644.177701526787 70.78656,644.3692215267871 70.51296,644.3692215267871 70.23936L644.3692215267871 67.44864C644.3692215267871 67.22976,644.2871415267871 67.12032,644.0956215267871 67.12032C644.040901526787 67.12032,643.9588215267871 67.12032,643.904101526787 67.14768C643.904101526787 67.14768,640.894501526787 68.26944,640.812421526787 68.2968C640.456741526787 68.2968,640.319941526787 67.83168,640.319941526787 67.50336L640.319941526787 62.79744C640.319941526787 62.5512,640.0737015267871 62.35968,639.8001015267871 62.35968C639.1708215267871 62.35968,639.116101526787 62.66064,639.116101526787 62.98896L639.116101526787 68.10528C639.0887415267871 68.46096,638.979301526787 68.89872,638.6783415267871 69.17232C637.857541526787 69.47328,636.5716215267871 70.18464,635.805541526787 70.18464C635.531941526787 70.32144,635.340421526787 70.59504,635.340421526787 70.86864L635.340421526787 73.65936C635.340421526787 73.85088,635.4498615267871 73.98768,635.614021526787 73.98768C635.6961015267871 73.98768,635.7234615267871 73.98768,635.805541526787 73.93296L638.842501526787 72.83856C638.8972215267871 72.78384,638.979301526787 72.78384,639.0066615267871 72.78384C639.0887415267871 72.78384,639.116101526787 72.83856,639.116101526787 72.86592L639.116101526787 73.46784C639.116101526787 73.57728,639.116101526787 73.68672,639.0066615267871 73.74144C638.842501526787 73.7688,633.5346615267871 75.79344,633.5346615267871 75.79344C633.206341526787 75.87552,633.069541526787 75.98496,633.069541526787 76.2312"/>
</svg>