<svg>
    <path stroke-width="0.3" fill="black" stroke="none" stroke-dasharray="none"
          d="M683.6319535236346 75M690.4445935236346 60.3624C690.4993135236346 60.307680000000005,690.5540335236346 60.307680000000005,690.6634735236346 60.307680000000005C690.9097135236345 60.307680000000005,691.1012335236346 60.41712,691.1833135236346 60.66336L691.2106735236346 60.74544L691.2653935236345 63.53616L691.2653935236345 66.35424L691.9493935236346 66.16272000000001C692.3597935236346 66.08064,692.6607535236346 66.02592,692.8522735236346 66.02592C693.1258735236346 66.02592,693.1805935236346 66.13536,693.2900335236346 66.35424C693.3447535236346 66.3816,693.3447535236346 67.0656,693.3447535236346 67.72224C693.3447535236346 68.40624,693.3447535236346 69.06288,693.2900335236346 69.1176C693.1805935236346 69.36384,693.1258735236346 69.3912,692.3597935236346 69.58272C691.4021935236345 69.80160000000001,691.2653935236345 69.85632,691.2653935236345 69.88368C691.2653935236345 69.88368,691.2653935236345 70.23936,691.2653935236345 70.73184C691.2653935236345 70.86864,691.2653935236345 71.06016,691.2653935236345 71.27904L691.2653935236345 72.70176000000001L691.5389935236346 72.61968L692.6607535236346 72.31872C693.2626735236346 72.20928,693.5362735236346 72.1272,693.6730735236346 72.1272C693.8098735236346 72.1272,693.8919535236346 72.15456,693.9740335236346 72.23664C694.1655535236346 72.4008,694.1929135236346 72.42816,694.1929135236346 73.33104C694.1929135236346 73.4952,694.1929135236346 73.68672,694.1929135236346 73.9056L694.1929135236346 75.1368L694.1655535236346 75.21888C694.1108335236346 75.32832,693.9740335236346 75.49248,693.8645935236345 75.51984C693.8098735236346 75.51984,693.1258735236346 75.71136,691.5937135236346 76.0944C691.4021935236345 76.12176,691.2653935236345 76.17648,691.2653935236345 76.17648C691.2653935236345 76.17648,691.2653935236345 76.61424,691.2653935236345 77.27088C691.2653935236345 77.38032,691.2653935236345 77.48976,691.2653935236345 77.5992L691.2653935236345 78.9672L691.9493935236346 78.8304C692.4145135236346 78.72096,692.6607535236346 78.63888,692.8522735236346 78.63888C693.0164335236346 78.63888,693.1258735236346 78.72096,693.1805935236346 78.8304C693.3447535236346 78.9672,693.3447535236346 78.88512,693.3447535236346 79.95216L693.3447535236346 80.38992L693.3447535236346 80.7456C693.3447535236346 81.81264,693.3447535236346 81.75792,693.1805935236346 81.89472C693.0711535236346 82.05888,693.1258735236346 82.05888,691.8399535236346 82.35984C691.5937135236346 82.44192,691.3201135236346 82.46928,691.2927535236346 82.49664L691.2653935236345 82.49664L691.2106735236346 85.34208L691.2106735236346 88.21488L691.1833135236346 88.32432C691.1012335236346 88.5432,690.8823535236346 88.65264,690.6634735236346 88.65264C690.4445935236346 88.65264,690.2530735236346 88.5432,690.1436335236345 88.32432L690.0889135236346 88.21488L690.0889135236346 85.50624L690.0889135236346 82.7976L690.0615535236346 82.7976L689.4322735236346 82.96176L688.2831535236346 83.23536C687.9821935236346 83.34479999999999,687.6812335236345 83.37216,687.6812335236345 83.42688C687.6538735236346 83.42688,687.6538735236346 83.56368,687.6538735236346 86.3544L687.6538735236346 89.30928L687.5991535236346 89.39135999999999C687.4897135236346 89.61024,687.2708335236346 89.71968,687.0793135236346 89.71968C686.8604335236346 89.71968,686.6415535236346 89.61024,686.5321135236346 89.39135999999999L686.4773935236346 89.30928L686.4773935236346 86.49119999999999C686.4773935236346 83.91936,686.4773935236346 83.67312,686.4500335236346 83.67312C686.4500335236346 83.67312,686.4500335236346 83.67312,686.4500335236346 83.67312C686.1490735236346 83.80992,685.1093935236346 84.0288,684.9999535236346 84.0288C684.7810735236346 84.0288,684.5895535236345 83.91936,684.4801135236346 83.67312C684.4253935236346 83.6184,684.4253935236346 83.6184,684.4253935236346 82.30512L684.4253935236346 80.99184L684.5074735236346 80.90976C684.6169135236346 80.63616,684.6169135236346 80.63616,686.1490735236346 80.25312L686.4773935236346 80.19839999999999L686.4773935236346 78.77568C686.4773935236346 77.48976,686.4773935236346 77.38032,686.4500335236346 77.38032C686.4500335236346 77.38032,686.4500335236346 77.38032,686.4500335236346 77.38032C686.4500335236346 77.38032,686.2585135236346 77.40768,686.0396335236346 77.48976L684.9725935236346 77.76336C684.5074735236346 77.8728,684.2612335236346 77.90016,684.0970735236345 77.90016C683.9876335236346 77.90016,683.9055535236346 77.8728,683.7961135236346 77.79072C683.6319535236346 77.65392,683.6045935236345 77.5992,683.6045935236345 76.69632C683.6045935236345 76.53216,683.6319535236346 76.34064,683.6319535236346 76.12176L683.6319535236346 74.89056L683.6593135236346 74.83584C683.6866735236346 74.69904,683.7961135236346 74.5896,683.9055535236346 74.56224C683.9602735236346 74.50752,684.6716335236346 74.34336,686.1217135236346 73.98768L686.4773935236346 73.87824L686.4773935236346 72.45552C686.4773935236346 71.1696,686.4773935236346 71.06016,686.4500335236346 71.06016C686.4500335236346 71.06016,686.4500335236346 71.06016,686.4500335236346 71.06016C686.1490735236346 71.14224,685.1093935236346 71.41584,684.9999535236346 71.41584C684.7810735236346 71.41584,684.5895535236345 71.25168,684.4801135236346 71.06016C684.4253935236346 70.97808,684.4253935236346 70.95072,684.4253935236346 69.6648L684.4253935236346 68.37888L684.5074735236346 68.2968C684.6169135236346 68.0232,684.6169135236346 68.0232,686.1490735236346 67.64016L686.4773935236346 67.53072L686.4773935236346 64.68528L686.4773935236346 61.83984L686.5321135236346 61.7304C686.6415535236346 61.53888,686.8604335236346 61.374719999999996,687.0793135236346 61.374719999999996C687.1613935236346 61.374719999999996,687.2434735236346 61.42944,687.2981935236346 61.4568C687.4076335236346 61.48416,687.5170735236346 61.62096,687.5991535236346 61.7304L687.6538735236346 61.83984L687.6538735236346 64.52112L687.6538735236346 67.25712L687.7906735236346 67.22976C687.8727535236346 67.2024,688.3105135236345 67.0656,688.8303535236346 66.95616L689.9247535236345 66.70992L690.0889135236346 66.65520000000001L690.0889135236346 63.70032L690.0889135236346 60.74544L690.1436335236345 60.66336C690.1983535236346 60.55392,690.2804335236345 60.41712,690.4445935236346 60.3624M690.0889135236346 71.55264C690.0889135236346 70.78656,690.0889135236346 70.15728,690.0615535236346 70.15728L690.0615535236346 70.15728C690.0615535236346 70.15728,689.7879535236345 70.23936,689.4596335236346 70.29408L688.2831535236346 70.59504C687.9274735236346 70.67712,687.6538735236346 70.75919999999999,687.6538735236346 70.75919999999999C687.6538735236346 70.75919999999999,687.6538735236346 71.11488,687.6538735236346 71.60736C687.6538735236346 71.79888,687.6538735236346 71.96304,687.6538735236346 72.20928L687.6538735236346 73.57728L687.8180335236345 73.52256L689.8700335236346 73.03008L690.0889135236346 72.97536L690.0889135236346 71.55264M690.0889135236346 77.8728C690.0889135236346 76.7784,690.0889135236346 76.47744,690.0615535236346 76.47744L690.0615535236346 76.47744C690.0615535236346 76.47744,690.0341935236346 76.47744,689.9521135236346 76.5048C689.8426735236346 76.5048,689.2133935236346 76.69632,688.3378735236346 76.88784L687.7085935236346 77.07936L687.6538735236346 77.07936L687.6538735236346 78.47472L687.6538735236346 79.89744L687.7906735236346 79.84272C687.8727535236346 79.84272,688.3105135236345 79.73328,688.8303535236346 79.56912L689.9247535236345 79.32288L690.0889135236346 79.26816L690.0889135236346 77.8728"/>
</svg>