<?xml version="1.0" encoding="UTF-8" standalone="no"?>
<svg
   xmlns:dc="http://purl.org/dc/elements/1.1/"
   xmlns:cc="http://creativecommons.org/ns#"
   xmlns:rdf="http://www.w3.org/1999/02/22-rdf-syntax-ns#"
   xmlns:svg="http://www.w3.org/2000/svg"
   xmlns="http://www.w3.org/2000/svg"
   id="svg8"
   version="1.1"
   viewBox="0 0 210 297"
   height="297mm"
   width="210mm">
  <defs
     id="defs2" />
  <metadata
     id="metadata5">
    <rdf:RDF>
      <cc:Work
         rdf:about="">
        <dc:format>image/svg+xml</dc:format>
        <dc:type
           rdf:resource="http://purl.org/dc/dcmitype/StillImage" />
        <dc:title></dc:title>
      </cc:Work>
    </rdf:RDF>
  </metadata>
  <g
     id="layer1">
    <path
       style="fill:#000000;stroke:none;stroke-width:0.07937501;stroke-dasharray:none"
       id="solAnahtari"
       d="m 0,10.679239 m 3.513735,2.43414 c 0.221285,0 0.476097,-0.0201 0.67056,-0.0603 0.100584,-0.0201 0.120701,-0.0268 0.140817,0.0872 0.113996,0.65044 0.261519,1.48864 0.261519,1.94462 0,1.42829 -0.965607,1.60264 -1.535583,1.60264 -0.523036,0 -0.771144,-0.15423 -0.771144,-0.28164 0,-0.0671 0.08717,-0.0939 0.308458,-0.16764 0.301752,-0.0872 0.643738,-0.34198 0.643738,-0.90525 0,-0.52974 -0.33528,-0.98572 -0.925373,-0.98572 -0.643738,0 -1.032663,0.51633 -1.032663,1.11313 0,0.62362 0.375514,1.57581 1.837335,1.57581 0.643737,0 1.897685,-0.29505 1.897685,-1.93121 0,-0.55657 -0.174346,-1.46853 -0.27493,-2.07203 -0.02012,-0.114 -0.01341,-0.10058 0.120701,-0.16093 0.979017,-0.38893 1.622755,-1.20701 1.622755,-2.30003 0,-1.2338301 -0.905256,-2.3268401 -2.326843,-2.3268401 -0.248107,0 -0.248107,0 -0.281635,-0.17434 L 3.62773,6.6693789 c -0.01341,-0.114 0,-0.12071 0.06035,-0.18106 1.046074,-0.97231 1.837334,-2.19943 1.837334,-3.68137 0,-0.8382 -0.234696,-1.66969 -0.630326,-2.24637997 -0.147523,-0.21458001 -0.39563,-0.48280001 -0.50292,-0.48280001 -0.134112,0 -0.435864,0.24811 -0.623621,0.46269001 C 3.051048,1.3317189 2.816352,2.5387289 2.816352,3.5445689 c 0,0.55656 0.07376,1.18689 0.140818,1.58252 0.02012,0.11399 0.02682,0.13411 -0.08717,0.23469 C 1.475235,6.5084389 3e-6,7.8897889 3e-6,9.8411193 c 0,1.6763997 1.146658,3.2723397 3.513735,3.2723397 m -2.742591,-2.6286 c 0,-0.5699697 0.100584,-1.3344101 0.898551,-2.2396701 0.583387,-0.64374 1.025957,-1.00584 1.475232,-1.36794 0.100584,-0.0805 0.120701,-0.0671 0.140817,0.0335 l 0.201168,1.24054 c 0.02682,0.18105 0.02682,0.17434 -0.147523,0.22799 -0.844905,0.28834 -1.40147,1.05277 -1.40147,1.8775601 0,0.86503 0.455981,1.48194 1.113129,1.70993 0.08047,0.0268 0.194463,0.0536 0.261519,0.0536 0.07376,0 0.113995,-0.0469 0.113995,-0.10729 0,-0.0671 -0.07376,-0.0939 -0.140818,-0.1207 -0.409041,-0.17434 -0.697382,-0.59009 -0.697382,-1.03266 0,-0.55657 0.375514,-0.9656097 0.965606,-1.1332497 0.154229,-0.0402 0.174346,-0.0268 0.194463,0.0805 l 0.482803,2.8766997 c 0.02012,0.10729 0.0067,0.10729 -0.134112,0.13412 -0.154229,0.0268 -0.348691,0.0469 -0.543154,0.0469 -1.689811,0 -2.782824,-0.93879 -2.782824,-2.27991 M 4.539695,1.5730389 c 0.315163,0 0.576681,0.26152 0.576681,0.79126 0,1.0729 -0.918667,1.94462 -1.6764,2.60848 -0.06706,0.0604 -0.107289,0.0469 -0.127406,-0.0805 -0.04023,-0.24811 -0.06035,-0.57668 -0.06035,-0.88514 0,-1.50876 0.697382,-2.43413 1.287475,-2.43413 M 4.258059,9.5526693 c 0.784556,0.0671 1.428293,0.7242097 1.428293,1.5691097 0,0.61021 -0.368808,1.09972 -0.905256,1.37465 -0.113995,0.0536 -0.134112,0.0536 -0.154229,-0.0603 L 4.15077,9.6868393 c -0.02012,-0.12071 -0.0067,-0.14753 0.107289,-0.13412" />
  </g>
</svg>
